
<svg xmlns="http://www.w3.org/2000/svg" viewBox="0 0 1000 1000" width="1000" height="1000">
  <g fill="none" stroke="white" stroke-width="10">
    <!-- Curvas base (logo inspirado en la ECI Julio Garavito) -->
    <path d="M100,900 Q300,850 500,800 T900,100" />
    <path d="M100,850 Q300,800 500,750 T900,150" />
    <path d="M100,800 Q300,750 500,700 T900,200" />
    <path d="M100,750 Q300,700 500,650 T900,250" />
    <path d="M100,700 Q300,650 500,600 T900,300" />
    <path d="M100,650 Q300,600 500,550 T900,350" />
    <path d="M100,600 Q300,550 500,500 T900,400" />

    <!-- Líneas verticales enrejadas -->
    <path d="M200,950 Q250,700 300,500 T350,200" />
    <path d="M300,950 Q350,700 400,500 T450,200" />
    <path d="M400,950 Q450,700 500,500 T550,200" />
    <path d="M500,950 Q550,700 600,500 T650,200" />
    <path d="M600,950 Q650,700 700,500 T750,200" />
    <path d="M700,950 Q750,700 800,500 T850,200" />
    <path d="M800,950 Q850,700 900,500 T950,200" />
  </g>

  <!-- Línea vertical lateral -->
  <line x1="980" y1="50" x2="980" y2="950" stroke="white" stroke-width="15"/>
</svg>
